<?xml version="1.0" encoding="UTF-8"?>
<svg width="65px" height="61px" viewBox="0 0 65 61" version="1.1" xmlns="http://www.w3.org/2000/svg" xmlns:xlink="http://www.w3.org/1999/xlink">
    <!-- Generator: sketchtool 40.1 (33804) - http://www.bohemiancoding.com/sketch -->
    <title>66D1275E-6BCD-4C65-915A-7B0A1A41E9F2</title>
    <desc>Created with sketchtool.</desc>
    <defs></defs>
    <g id="Welcome" stroke="none" stroke-width="1" fill="none" fill-rule="evenodd">
        <g id="Home" transform="translate(-977.000000, -986.000000)" fill="#e1551c">
            <g id="to-suppliers" transform="translate(201.000000, 879.000000)">
                <g id="Group-5">
                    <g id="ico" transform="translate(773.000000, 101.000000)">
                        <g id="Group">
                            <path d="M30.2956038,13.0700341 L44.7875491,6.85228065 L45.6132069,6.5 L46.3926278,6.95135958 L67.10673,18.9553227 L66.9614143,25.7763568 L63.6345639,27.332997 L67.10673,29.3454002 L66.9614143,36.1664343 L63.553099,37.7605042 L67.10673,39.8191443 L66.9614143,46.6423801 L24.5093942,66.5 L4.15417783,53.6747826 L3.85253752,45.2838978 L5.99924773,44.3635646 L4.15417783,43.1988367 L3.85253752,34.807952 L5.91998459,33.9228469 L4.15417783,32.8087593 L3.85253752,24.4178746 L19.7910352,17.5792265 L19.5884738,17.4427177 L30.0776302,12.9423324 L30.2956038,13.0700341 Z M51.2364867,25.3338043 L62.2870904,20.3160068 L45.3710139,10.5137977 L34.1508752,15.326832 L51.2364867,25.3338043 Z M51.0339254,35.8185571 L51.0845657,33.2028733 L59.6648013,29.1868739 L62.2870904,30.7060842 L51.0339254,35.8185571 Z M39.3492165,38.6918462 L39.3249972,41.1357932 L24.7471836,47.7586694 L8.31769476,36.8049429 L9.61232615,36.2478992 L24.5093942,45.631775 L39.3492165,38.6918462 Z M39.4306814,30.6972772 L23.3578768,19.9593226 L8.31769476,26.4148655 L24.7471836,37.3663902 L39.4306814,30.6972772 Z M50.8269605,46.3869766 L62.2870904,41.18203 L59.5855381,39.6165829 L50.8798026,43.6876261 L50.8269605,46.3869766 Z M30.652288,31.0781806 C30.8944809,31.2433122 31.1366739,31.4084437 31.3810686,31.5713735 C30.8900774,31.7893472 30.4034898,32.0073208 29.9235074,32.2186892 C29.4413233,32.4322594 28.9635426,32.6458295 28.4879637,32.8549961 C28.243569,32.6854611 27.9991743,32.5137243 27.7525779,32.3419875 C26.9247184,32.5599611 26.1893325,32.6392242 25.5508238,32.5819786 C24.9167187,32.524733 24.3728854,32.3331804 23.9215258,32.0095226 C23.1465084,31.4546806 22.380298,30.9064438 21.6206928,30.3604088 C22.0588419,30.1534439 22.5013944,29.9420755 22.943947,29.7307071 C23.3887013,29.5215405 23.8378592,29.3079703 24.287017,29.0944002 C25.0774467,29.642637 25.8744817,30.197479 26.6803237,30.7589263 C26.9225166,30.9284613 27.2307622,30.9262596 27.6028586,30.7545228 C27.966148,30.5893912 28.0255954,30.4220579 27.7812007,30.2547246 C27.3606657,29.9640931 26.9379289,29.6734615 26.5217974,29.3850317 C26.2575869,29.2022862 25.8612711,29.0833914 25.3416572,29.0217423 C25.0818502,28.9909178 24.5886573,28.9600932 23.866482,28.9292687 C23.1531136,28.8984441 22.2129647,28.8940406 21.063649,28.8411985 C19.9099299,28.7905581 19.1172984,28.568181 18.6769476,28.2533302 C18.3202635,27.9979267 17.9635793,27.7425232 17.6090969,27.4893215 C17.1291145,27.1458479 16.8979304,26.7913655 16.9177461,26.4302778 C16.9353602,26.0691901 17.2039742,25.6926902 17.7235881,25.3073832 C17.5078162,25.1554622 17.2920443,25.0057429 17.0806759,24.8560236 C17.4946057,24.6402517 17.9107372,24.4222781 18.3290705,24.2043044 C18.7496055,23.9863308 19.1723423,23.7639536 19.5994826,23.5437782 C19.819658,23.6934975 20.0398334,23.8476203 20.2622106,23.9973395 C20.929342,23.7793659 21.5436314,23.6912957 22.102877,23.7331291 C22.666526,23.7705589 23.1773329,23.9444974 23.6286925,24.2461378 C24.2187626,24.6402517 24.8088327,25.0365675 25.4055081,25.4306814 C24.949745,25.6574621 24.4961836,25.8798393 24.0470258,26.1022164 C23.6000697,26.3245936 23.1509119,26.5425672 22.7083593,26.7627427 C22.0940699,26.3378041 21.4863858,25.9194708 20.8787017,25.5011376 C20.6827456,25.3668306 20.4493597,25.3690323 20.1763422,25.5055411 C19.8592896,25.6684709 19.8857106,25.8864445 20.2688158,26.141848 C20.491193,26.2893655 20.7333859,26.410462 20.9579648,26.5579795 C21.3256578,26.8001725 22.0742542,26.956497 23.2345785,26.9807163 C24.40371,27.0071374 25.3680782,27.0269531 26.1188764,27.0577777 C26.8762798,27.0886023 27.4157095,27.1260321 27.7305603,27.1678654 C28.3624638,27.2537338 28.8952882,27.4408829 29.3202268,27.7227074 C29.7847969,28.0331547 30.2515687,28.3436021 30.7205424,28.6562511 C31.315016,29.0547686 31.6078493,29.4554879 31.5968405,29.8628124 C31.5858317,30.2679351 31.2687791,30.6730579 30.652288,31.0781806 L30.652288,31.0781806 Z M54.0767495,20.6330593 C54.3057319,20.7871821 54.5303108,20.9413049 54.7592932,21.0976294 C54.3013284,21.2979891 53.8455653,21.5005504 53.3942057,21.7009101 C52.9428461,21.9012697 52.4936883,22.1016293 52.048934,22.2975854 C51.8177498,22.1368574 51.5887674,21.9761293 51.359785,21.8154013 C50.5825658,22.0201644 49.8934168,22.095024 49.2945396,22.0399802 C48.7022678,21.9893398 48.1914609,21.808796 47.7665223,21.5027522 C47.0399435,20.98534 46.3221717,20.4679278 45.6110051,19.9593226 C46.0205314,19.7633665 46.4344611,19.5652086 46.8505926,19.3692525 C47.2689259,19.1710946 47.6872592,18.9729368 48.109996,18.7725772 C48.8497853,19.2855859 49.5983817,19.8074016 50.3535834,20.3336208 C50.580364,20.4921471 50.8687938,20.4899453 51.2210745,20.3292173 C51.5601446,20.1750945 51.6151884,20.0143664 51.386206,19.8580419 C50.9898903,19.5872262 50.5957763,19.3142087 50.2060658,19.0455947 C49.9550659,18.8738578 49.5851712,18.7593666 49.0985835,18.7043228 C48.8563906,18.6757 48.3918205,18.6448754 47.715882,18.6184544 C47.0465488,18.5898316 46.1658471,18.5854281 45.0869876,18.5347877 C44.0059264,18.4863491 43.2639353,18.2793842 42.8522073,17.9843492 C42.5153389,17.744358 42.182874,17.5065686 41.8504092,17.2665774 C41.4012513,16.9451213 41.1832777,16.6126564 41.2008917,16.2735863 C41.2207075,15.9367179 41.4695057,15.5844373 41.9560934,15.2211478 C41.753532,15.0780338 41.5531724,14.9393233 41.3528127,14.7962093 C41.7403215,14.5936479 42.1322337,14.3932883 42.5241459,14.1885252 C42.9182599,13.9815603 43.3167774,13.7745954 43.7130931,13.5698323 C43.9222597,13.7085428 44.1292246,13.8516568 44.3361895,13.9925691 C44.9614877,13.7900077 45.5383472,13.7063411 46.0623647,13.7437709 C46.5907857,13.7812007 47.070768,13.9419287 47.4935048,14.225955 C48.0461451,14.5936479 48.6009871,14.9657444 49.1580309,15.3378408 C48.7330924,15.5492092 48.3059521,15.7605776 47.885417,15.9653407 C47.464882,16.1745074 47.0465488,16.3814722 46.6304172,16.5862354 C46.0535577,16.1877179 45.4833034,15.7936039 44.9152508,15.4038934 C44.7303035,15.2783935 44.5123298,15.2783935 44.2547246,15.4082969 C43.9618913,15.5580162 43.9817071,15.7671829 44.340593,16.0027705 C44.5519614,16.1436828 44.7787421,16.2537705 44.9879087,16.3946828 C45.3335841,16.6214634 46.0359436,16.768981 47.1236101,16.7909985 C48.2178819,16.8152178 49.1228028,16.8328318 49.8273641,16.8636564 C50.5363289,16.8900774 51.0427324,16.9253055 51.3377674,16.9671388 C51.9300393,17.0486037 52.4298374,17.2225423 52.8283549,17.4867528 C53.2621005,17.7773843 53.7002495,18.0702176 54.1406003,18.3608491 C54.6998459,18.7329456 54.9750651,19.1116473 54.9640564,19.490349 C54.9508458,19.8712524 54.6558108,20.2521559 54.0767495,20.6330593 L54.0767495,20.6330593 Z M8.31769476,47.278687 L24.7471836,58.2324135 L39.2171113,51.6579759 L39.2435323,49.1303622 L24.5093942,56.0240542 L9.69379105,46.6908187 L8.31769476,47.278687 Z" id="Fill-1"></path>
                        </g>
                    </g>
                </g>
            </g>
        </g>
    </g>
</svg>
