<?xml version="1.0" encoding="UTF-8"?>
<svg width="60px" height="62px" viewBox="0 0 60 62" version="1.1" xmlns="http://www.w3.org/2000/svg" xmlns:xlink="http://www.w3.org/1999/xlink">
    <!-- Generator: sketchtool 40.1 (33804) - http://www.bohemiancoding.com/sketch -->
    <title>436B60ED-810C-4CBA-B2C4-F5013624C791</title>
    <desc>Created with sketchtool.</desc>
    <defs></defs>
    <g id="Welcome" stroke="none" stroke-width="1" fill="none" fill-rule="evenodd">
        <g id="Home" transform="translate(-979.000000, -1104.000000)" fill="#FFFFFF">
            <g id="to-suppliers" transform="translate(201.000000, 879.000000)">
                <g id="Group-5">
                    <g id="ico" transform="translate(773.000000, 101.000000)">
                        <g id="Group-2" transform="translate(0.000000, 120.000000)">
                            <path d="M43.9920756,34.060037 L59.0733075,34.060037 L62.8764589,62.1205248 L47.7930003,62.1205248 L43.9920756,34.060037 Z M27.1495483,24.1758515 L34.3261038,24.1758515 C34.4263039,24.084558 34.5220507,23.9932646 34.6133441,23.9019711 C36.0495459,22.4657694 36.9335336,20.4862603 36.9335336,18.2996709 C36.9335336,17.9634438 36.9112669,17.6338968 36.8711869,17.3043497 C37.5636811,17.53815 38.3007087,17.6695235 39.0600029,17.6695235 C40.1377109,17.6695235 41.1619788,17.4112298 42.0793666,16.9636693 C42.5002071,16.756589 42.898781,16.5027487 43.2639548,16.2155084 C43.5200217,16.4070019 43.7939021,16.5717755 44.0811424,16.7209623 C44.8782901,17.1284428 45.7734112,17.3600164 46.7130657,17.3600164 C48.3051343,17.3600164 49.7524694,16.7120556 50.805684,15.6632943 L50.8079107,15.658841 L50.8101374,15.6543877 C51.8588987,14.6033997 52.5090861,13.1538379 52.5090861,11.5617693 C52.5090861,9.97192734 51.8588987,8.52236556 50.8101374,7.4713776 L50.8079107,7.46692426 L50.805684,7.46692426 C49.7524694,6.41370963 48.3051343,5.76574884 46.7130657,5.76574884 C45.9693581,5.76574884 45.2479172,5.91270902 44.5799164,6.17990935 C44.4507695,6.23112274 44.3238494,6.28233614 44.2036092,6.34468288 C43.7515954,5.83032225 43.2261014,5.3827617 42.642714,5.02204126 C41.5939527,4.37408046 40.3670579,4 39.0600029,4 C37.8130681,4 36.6396133,4.33845375 35.6287054,4.93074781 C35.1388381,5.21353483 34.6912775,5.55644191 34.2904771,5.94833573 C33.8852232,5.64773536 33.4510227,5.3827617 32.9901021,5.16009476 C31.9814209,4.67913417 30.8636328,4.40970717 29.6946314,4.40970717 C28.2717897,4.40970717 26.942468,4.79937432 25.7979599,5.47850848 C25.0965591,5.89712233 24.464185,6.42261631 23.9297843,7.03940374 C23.7115707,6.9258436 23.4822238,6.82787014 23.2506501,6.73880337 C22.4980359,6.46046969 21.6942082,6.30905617 20.8703406,6.30905617 C18.9843516,6.30905617 17.2764961,7.07503045 16.0384679,8.31083197 L16.0406946,8.31305864 C14.8048931,9.55331349 14.0389188,11.2633956 14.0389188,13.1404779 C14.0389188,14.3339727 14.3461992,15.4517607 14.8828265,16.4292686 C15.256907,17.1128561 15.7423209,17.7207369 16.314575,18.2350975 L16.2989883,18.3308443 C16.2566815,18.609178 16.2299615,18.891965 16.2166015,19.1725253 C15.3482004,19.8961929 14.6267595,20.777954 14.0945856,21.7732752 C13.7004651,22.5169828 13.4132247,23.3230371 13.2462245,24.1758515 L16.4170017,24.1758515 C16.5194285,23.8396244 16.6530287,23.5234373 16.8133489,23.2183836 C17.2475494,22.401196 17.8710169,21.7042484 18.6214045,21.2010211 L19.351752,20.7044739 L19.2938586,19.8338461 L19.2849519,19.6779793 C19.2827253,19.6312192 19.2871786,19.6824326 19.2871786,19.5221124 C19.2871786,19.2682721 19.3072186,19.0211118 19.3428453,18.7873115 C19.3806987,18.5334712 19.4363655,18.2996709 19.5053922,18.0725506 L19.857206,16.9458559 L18.8618848,16.3157085 C18.3274841,15.9772547 17.8821502,15.5074275 17.5770965,14.9507601 C17.2831761,14.4208128 17.1161759,13.8017987 17.1161759,13.1404779 C17.1161759,12.10285 17.5325631,11.1631955 18.2094706,10.4885146 L18.2161506,10.4885146 C18.8952848,9.80938048 19.8327126,9.38853996 20.8703406,9.38853996 C21.3423945,9.38853996 21.783275,9.46647339 22.1796222,9.61343357 C22.6026894,9.7715271 22.9879032,10.0053274 23.3241302,10.2925677 L24.7625587,11.5372759 L25.6754931,9.86727388 C26.0673869,9.14805966 26.653001,8.54463225 27.3610819,8.12379174 C28.0424427,7.71853791 28.8373637,7.48696429 29.6946314,7.48696429 C30.4093923,7.48696429 31.0796198,7.64505781 31.6674605,7.92784483 C32.2842479,8.22176519 32.8253286,8.65819239 33.2573025,9.18813971 L35.7867989,8.98328613 C36.116346,8.40657875 36.5950799,7.92339149 37.1695606,7.58716441 C37.7217746,7.26652402 38.3675087,7.07948379 39.0600029,7.07948379 C39.7903505,7.07948379 40.4650313,7.28433737 41.032832,7.6316978 C41.6251261,7.99687158 42.11054,8.52236556 42.4245004,9.14805966 L44.8471167,9.58003353 C45.0987303,9.34400657 45.390424,9.152513 45.7066111,9.02781952 C46.0072115,8.90980604 46.3478919,8.84523262 46.7130657,8.84523262 C47.4679066,8.84523262 48.1448141,9.14583299 48.6346814,9.63570026 L48.6413614,9.6401536 C49.129002,10.1277942 49.4296023,10.8069284 49.4296023,11.5617693 C49.4296023,12.3188369 49.129002,12.9979711 48.6413614,13.4856117 L48.6346814,13.490065 C48.1448141,13.9799323 47.4679066,14.2805326 46.7130657,14.2805326 C46.2565984,14.2805326 45.8357579,14.1758792 45.4750375,13.9932923 C45.094277,13.7973454 44.7625033,13.5078784 44.5042096,13.1538379 L42.0415133,13.1248912 C41.6919262,13.5813584 41.2399123,13.9509856 40.7188716,14.2070525 C40.2267777,14.4542129 39.6634303,14.5900397 39.0600029,14.5900397 C38.5345089,14.5900397 38.042415,14.4898396 37.6059878,14.3027993 C37.1428406,14.1113058 36.722,13.8196121 36.3724129,13.463345 L33.8763165,13.9109055 C33.8228765,14.0378257 33.7583031,14.1625192 33.691503,14.2805326 C33.6336096,14.3851861 33.5601295,14.5031996 33.4755161,14.6234397 L32.9745154,15.3649206 L33.3686359,16.164295 C33.5267294,16.4849354 33.6469696,16.8345224 33.7360364,17.1996962 C33.8139698,17.5470567 33.8562765,17.9122304 33.8562765,18.2996709 C33.8562765,19.6378992 33.3129692,20.8469807 32.4401148,21.7220618 C31.562807,22.6015962 30.3514989,23.1404502 29.0154972,23.1404502 L29.0154972,23.1493569 L28.9420171,23.1493569 L28.9420171,23.1449035 L28.8262303,23.1449035 L26.9714147,23.0870101 L27.1495483,24.1758515 Z M54.6288754,20.3860601 C55.412663,18.4377244 57.3209187,17.0594161 59.5520414,17.0594161 C62.4823384,17.0594161 64.855968,19.4352723 64.855968,22.3655692 C64.855968,25.2914128 62.4823384,27.6672691 59.5520414,27.6672691 C59.3137878,27.6672691 59.0777609,27.6494557 58.8484139,27.6182824 C58.4632001,29.5243114 56.8065581,30.9627398 54.8003289,31.0117265 C54.7491155,31.3212336 54.6645021,31.615154 54.5531686,31.897941 L45.869158,31.897941 C45.6620777,31.372447 45.5485176,30.7935129 45.5485176,30.1945389 C45.5485176,27.8320426 47.3031331,25.8837069 49.5810159,25.5741999 C49.0221218,24.9351457 48.6792147,24.0956914 48.6792147,23.1827569 C48.6792147,21.1787545 50.3069101,19.5510591 52.3109125,19.5510591 C53.1926736,19.5510591 54.0009546,19.8650195 54.6288754,20.3860601 L54.6288754,20.3860601 Z M11.1397953,26.226614 L36.176466,26.226614 L41.531606,65.7299559 L5.78465534,65.7299559 L11.1397953,26.226614 Z" id="Fill-1"></path>
                        </g>
                    </g>
                </g>
            </g>
        </g>
    </g>
</svg>