<?xml version="1.0" encoding="UTF-8"?>
<svg width="100px" height="19px" viewBox="0 0 100 19" version="1.1" xmlns="http://www.w3.org/2000/svg" xmlns:xlink="http://www.w3.org/1999/xlink">
    <!-- Generator: sketchtool 40.1 (33804) - http://www.bohemiancoding.com/sketch -->
    <title>95DBF2BD-4B03-4556-93DF-4751DF984EC3</title>
    <desc>Created with sketchtool.</desc>
    <defs></defs>
    <g id="Symbols" stroke="none" stroke-width="1" fill="none" fill-rule="evenodd">
        <g id="Header" transform="translate(-200.000000, -21.000000)">
            <g id="logo" transform="translate(200.000000, 20.826087)">
                <g id="Group-9" transform="translate(0.000000, 0.053130)">
                    <path d="M36.8964205,0.132639693 L25.9897917,18.6615132 L47.8028598,18.6615132 L36.8964205,0.132639693 Z M36.8964205,8.29666856 L40.5943371,14.5794059 L33.198125,14.5794059 L36.8964205,8.29666856 Z" id="Fill-1" fill="#E05A00"></path>
                    <path d="M4.46761364,4.51890803 L4.46761364,10.0503919 L8.30890152,10.0503919 C9.8344697,10.0503919 11.0604167,8.7944018 11.0604167,7.27127456 C11.0604167,5.77489818 9.8344697,4.51890803 8.33636364,4.51890803 L4.46761364,4.51890803 L4.46761364,4.51890803 Z M15.555303,7.27127456 C15.555303,9.89007254 14.2477273,12.1079791 12.2589015,13.1499624 L16.0729167,18.6277588 L10.5155303,18.6277588 L7.73674242,14.1118788 L4.46761364,14.1118788 L4.46761364,18.6277588 L0,18.6277588 L0,0.457235403 L8.9625,0.457235403 C12.7223485,0.457235403 15.555303,3.31641961 15.555303,7.27127456 L15.555303,7.27127456 Z" id="Fill-2" fill="#FFFDFD"></path>
                    <polygon id="Fill-4" fill="#FFFDFD" points="19.2585227 18.6278888 23.7261364 18.6278888 23.7261364 0.457365442 19.2585227 0.457365442"></polygon>
                    <polygon id="Fill-6" fill="#FFFDFD" points="54.3768939 14.5662162 64.1024621 14.5662162 64.1024621 18.6278888 49.9092803 18.6278888 49.9092803 0.457365442 54.3768939 0.457365442"></polygon>
                    <polygon id="Fill-7" fill="#FFFDFD" points="80.0375758 4.51890803 73.4720455 4.51890803 73.4720455 18.6277588 68.9498864 18.6277588 68.9498864 4.51890803 62.3843561 4.51890803 62.3843561 0.457235403 80.0375758 0.457235403"></polygon>
                    <path d="M84.8853788,9.54264571 C84.8853788,12.5086476 87.3370833,14.8866878 90.360947,14.8866878 C93.3302652,14.8866878 95.7821591,12.5086476 95.7821591,9.54264571 C95.7821591,6.60320892 93.3302652,4.22498293 90.360947,4.22498293 C87.3370833,4.22498293 84.8853788,6.60320892 84.8853788,9.54264571 M99.9230682,9.54264571 C99.9230682,14.7265542 95.6189015,18.9485462 90.360947,18.9485462 C85.0486364,18.9485462 80.7990152,14.7265542 80.7990152,9.54264571 C80.7990152,4.38530234 85.0486364,0.136745208 90.360947,0.136745208 C95.6189015,0.136745208 99.9230682,4.38530234 99.9230682,9.54264571" id="Fill-8" fill="#FFFDFD"></path>
                </g>
            </g>
        </g>
    </g>
</svg>