<?xml version="1.0" encoding="UTF-8"?>
<svg width="16px" height="16px" viewBox="0 0 16 16" version="1.1" xmlns="http://www.w3.org/2000/svg" xmlns:xlink="http://www.w3.org/1999/xlink">
    <!-- Generator: sketchtool 40.2 (33826) - http://www.bohemiancoding.com/sketch -->
    <title>6935C754-AAE3-4860-9698-194EEEF585B2</title>
    <desc>Created with sketchtool.</desc>
    <defs></defs>
    <g id="Welcome" stroke="none" stroke-width="1" fill="none" fill-rule="evenodd">
        <g id="List" transform="translate(-1241.000000, -217.000000)" fill="#FFFFFF">
            <g id="search" transform="translate(587.000000, 200.000000)">
                <g id="Group-9">
                    <g id="Group-13" transform="translate(627.000000, 0.000000)">
                        <g id="Group-2" transform="translate(27.000000, 17.000000)">
                            <path d="M11.076923,6.76923077 C11.076923,5.5833274 10.655453,4.56891447 9.8125,3.72596154 C8.969547,2.88300861 7.955134,2.46153846 6.769231,2.46153846 C5.583327,2.46153846 4.568914,2.88300861 3.725962,3.72596154 C2.883009,4.56891447 2.461538,5.5833274 2.461538,6.76923077 C2.461538,7.95513413 2.883009,8.96954707 3.725962,9.8125 C4.568914,10.6554529 5.583327,11.0769231 6.769231,11.0769231 C7.955134,11.0769231 8.969547,10.6554529 9.8125,9.8125 C10.655453,8.96954707 11.076923,7.95513413 11.076923,6.76923077 L11.076923,6.76923077 L11.076923,6.76923077 L11.076923,6.76923077 Z M16,14.7692308 C16,15.1025658 15.878206,15.3910244 15.634615,15.6346154 C15.391024,15.8782063 15.102566,16 14.769231,16 C14.423075,16 14.134617,15.8782063 13.903846,15.6346154 L10.605769,12.3461538 C9.458328,13.1410296 8.179494,13.5384615 6.769231,13.5384615 C5.85256,13.5384615 4.975966,13.3605787 4.139423,13.0048077 C3.30288,12.6490367 2.581734,12.1682723 1.975962,11.5625 C1.370189,10.9567277 0.889425,10.2355811 0.533654,9.3990385 C0.177883,8.56249582 0,7.68590202 0,6.76923077 C0,5.85255952 0.177883,4.97596572 0.533654,4.13942308 C0.889425,3.30288043 1.370189,2.5817338 1.975962,1.97596154 C2.581734,1.37018928 3.30288,0.88942486 4.139423,0.53365385 C4.975966,0.17788284 5.85256,0 6.769231,0 C7.685902,0 8.562496,0.17788284 9.399038,0.53365385 C10.235581,0.88942486 10.956728,1.37018928 11.5625,1.97596154 C12.168272,2.5817338 12.649037,3.30288043 13.004808,4.13942308 C13.360579,4.97596572 13.538462,5.85255952 13.538462,6.76923077 C13.538462,8.17949423 13.14103,9.4583276 12.346154,10.6057692 L15.644231,13.9038462 C15.881411,14.1410268 16,14.4294855 16,14.7692308 L16,14.7692308 L16,14.7692308 L16,14.7692308 Z" id="Shape"></path>
                        </g>
                    </g>
                </g>
            </g>
        </g>
    </g>
</svg>