<?xml version="1.0" standalone="no"?>
<!DOCTYPE svg PUBLIC "-//W3C//DTD SVG 20010904//EN"
 "http://www.w3.org/TR/2001/REC-SVG-20010904/DTD/svg10.dtd">
<svg version="1.0" xmlns="http://www.w3.org/2000/svg"
 width="376.000000pt" height="376.000000pt" viewBox="0 0 376.000000 376.000000"
 preserveAspectRatio="xMidYMid meet">
<metadata>
Created by potrace 1.11, written by Peter Selinger 2001-2013
</metadata>
<g transform="translate(0.000000,376.000000) scale(0.100000,-0.100000)"
fill="#000000" stroke="none">
<path d="M1030 2709 c-87 -10 -116 -28 -178 -107 l-18 -24 -412 0 c-232 0
-412 -4 -412 -9 0 -5 33 -100 74 -211 40 -112 101 -282 135 -378 35 -96 69
-191 76 -210 8 -19 28 -75 45 -125 17 -49 35 -99 40 -110 5 -11 37 -98 71
-192 l62 -173 161 0 161 0 35 -48 c45 -61 90 -81 190 -87 90 -5 94 -2 96 65 1
25 2 51 3 58 1 10 149 12 724 10 l722 -3 1 -55 c1 -30 2 -60 3 -67 2 -16 157
-8 202 11 36 15 79 56 98 93 l12 23 416 0 415 0 -5 22 c-3 13 -23 73 -45 133
-22 61 -74 207 -117 325 -42 118 -85 238 -95 265 -10 28 -40 109 -65 180 -52
148 -88 248 -138 385 l-35 95 -163 1 -163 2 -20 28 c-61 84 -105 104 -227 104
l-76 0 2 -60 c1 -33 -2 -63 -8 -67 -5 -3 -332 -6 -726 -6 l-716 0 -1 54 c-1
30 -2 61 -3 69 -1 17 -32 19 -121 9z"/>
</g>
</svg>
