<?xml version="1.0" encoding="UTF-8"?>
<svg width="70px" height="70px" viewBox="0 0 70 70" version="1.1" xmlns="http://www.w3.org/2000/svg" xmlns:xlink="http://www.w3.org/1999/xlink">
    <!-- Generator: sketchtool 40.1 (33804) - http://www.bohemiancoding.com/sketch -->
    <title>8BA05AB4-90B3-4A83-8F90-D908A27CE8B7</title>
    <desc>Created with sketchtool.</desc>
    <defs></defs>
    <g id="Welcome" stroke="none" stroke-width="1" fill="none" fill-rule="evenodd">
        <g id="Home" transform="translate(-974.000000, -1220.000000)" fill="#e1551c">
            <g id="to-suppliers" transform="translate(201.000000, 879.000000)">
                <g id="Group-5">
                    <g id="ico" transform="translate(773.000000, 101.000000)">
                        <g id="Group-6" transform="translate(0.000000, 240.000000)">
                            <path d="M28.4712371,7.93735623 L41.1449728,14.5687411 L42.1224739,15.1324405 L42.1224739,16.2429494 L42.1224739,25.1333543 L38.2462489,25.1333543 L38.2462489,17.3534583 L28.4712371,12.2843863 L28.4712371,62.312179 L1.79791115,62.312179 L1.79791115,16.4878525 L28.4712371,7.93735623 Z M8.65730929,19.338018 C7.56157902,19.627257 6.49329479,19.908051 5.44823413,20.1846227 L5.44823413,25.6506066 C6.49329479,25.4437057 7.56157902,25.2304711 8.65730929,25.013014 L8.65730929,19.338018 Z M24.0946498,25.5366 C22.5872289,25.7836143 21.1199215,26.0221837 19.6948388,26.2586419 L19.6948388,32.6430124 C21.1199215,32.5015598 22.5872289,32.3537734 24.0946498,32.2059871 L24.0946498,25.5366 Z M15.7763892,26.8983457 C14.4948703,27.109469 13.2513537,27.3142587 12.0395056,27.5106034 L12.0395056,33.4009453 C13.2513537,33.2827162 14.4948703,33.1581535 15.7763892,33.0314794 L15.7763892,26.8983457 Z M8.65730929,28.0658579 C7.56157902,28.2453127 6.49118356,28.4205451 5.44823413,28.5915551 L5.44823413,34.0554278 C6.49118356,33.9519773 7.55946779,33.8485269 8.65730929,33.7387427 L8.65730929,28.0658579 Z M24.0946498,35.7866394 C22.5872289,35.8837561 21.1199215,35.9787616 19.6948388,36.0716559 L19.6948388,42.4539152 L24.0946498,42.4539152 L24.0946498,35.7866394 Z M15.7763892,36.3250039 C14.4948703,36.4073421 13.2513537,36.4875689 12.0395056,36.5677958 L12.0395056,42.4539152 L15.7763892,42.4539152 L15.7763892,36.3250039 Z M8.65730929,36.7852529 C7.55946779,36.8549236 6.49118356,36.9224831 5.44823413,36.9921538 L5.44823413,42.4539152 L8.65519805,42.4539152 C8.65519805,40.5664723 8.65519805,38.6769182 8.65730929,36.7852529 L8.65730929,36.7852529 Z M24.0946498,15.2738932 C22.5872289,15.6708051 21.1199215,16.0571609 19.6948388,16.4308492 L19.6948388,22.8194423 C21.1199215,22.5365369 22.5872289,22.2451867 24.0946498,21.9453915 L24.0946498,15.2738932 Z M44.6897341,29.4297148 L44.6897341,33.9287537 C43.7502351,34.1124311 42.8381821,34.2939972 41.9493528,34.4713408 L41.9493528,30.1496455 C42.8381821,29.9174098 43.7502351,29.6767292 44.6897341,29.4297148 L44.6897341,29.4297148 Z M39.4686532,30.8041279 L39.4686532,34.9653695 C38.6684957,35.123712 37.8831168,35.277832 37.1167389,35.4319521 L37.1167389,31.4227194 C37.8831168,31.220041 38.6684957,31.0152513 39.4686532,30.8041279 L39.4686532,30.8041279 Z M50.7890881,35.3475028 L50.7890881,40.2392311 C49.6828016,40.3490153 48.6081837,40.454577 47.5610118,40.5580274 L47.5610118,35.8753112 C48.6081837,35.7043012 49.6828016,35.5290689 50.7890881,35.3475028 L50.7890881,35.3475028 Z M44.6897341,36.3482275 L44.6897341,40.843044 C43.7502351,40.9359382 42.8381821,41.0288325 41.9493528,41.1153931 L41.9493528,36.795809 C42.8381821,36.6522452 43.7502351,36.5002363 44.6897341,36.3482275 L44.6897341,36.3482275 Z M39.4686532,37.2032771 L39.4686532,41.3624074 C38.6663844,41.4405231 37.8810055,41.5186387 37.1167389,41.5946431 L37.1167389,37.5875217 C37.8810055,37.4629589 38.6684957,37.3341736 39.4686532,37.2032771 L39.4686532,37.2032771 Z M50.7890881,42.8634946 L50.7890881,47.7510005 L47.5610118,47.7510005 L47.5610118,43.0725067 C48.6081837,43.0049472 49.6828016,42.9352765 50.7890881,42.8634946 L50.7890881,42.8634946 Z M44.6897341,43.256184 L44.6897341,47.7510005 L41.9493528,47.7510005 L41.9493528,43.4335277 C42.8381821,43.3765243 43.7502351,43.319521 44.6897341,43.256184 L44.6897341,43.256184 Z M39.4686532,43.5960926 L39.4686532,47.7510005 L37.1167389,47.7510005 L37.1167389,43.7481015 C37.8810055,43.6974319 38.6663844,43.6467622 39.4686532,43.5960926 L39.4686532,43.5960926 Z M50.7890881,27.823066 L50.7890881,32.7147944 C49.6828016,32.9364739 48.6081837,33.1475973 47.5610118,33.3566094 L47.5610118,28.6717819 C48.6081837,28.3973216 49.6828016,28.1144163 50.7890881,27.823066 L50.7890881,27.823066 Z M15.7763892,17.4653537 C14.4948703,17.8010399 13.2513537,18.1282811 12.0395056,18.4491886 L12.0395056,24.3416417 C13.2513537,24.0988499 14.4948703,23.8518355 15.7763892,23.5984875 L15.7763892,17.4653537 Z M53.9981632,26.6555538 L60.646438,29.6450607 L60.646438,39.9964393 L60.646438,40.7205924 L61.1468004,41.2821806 L64.9216862,45.5109816 L64.9216862,62.9202143 L68.7979111,62.9202143 L68.7979111,44.782606 L68.7979111,44.0542303 L68.29966,43.4947534 L64.5247742,39.2680637 L64.5247742,28.5345518 L64.5247742,27.4219316 L63.5472731,26.8603435 L53.9981632,22.4436427 L34.4418059,28.7140066 L34.4418059,62.312179 L53.9981632,62.312179 L53.9981632,26.6555538 Z" id="Page-1"></path>
                        </g>
                    </g>
                </g>
            </g>
        </g>
    </g>
</svg>
