<?xml version="1.0" encoding="UTF-8"?>
<svg width="30px" height="30px" viewBox="0 0 30 30" version="1.1" xmlns="http://www.w3.org/2000/svg" xmlns:xlink="http://www.w3.org/1999/xlink">
    <!-- Generator: sketchtool 40.2 (33826) - http://www.bohemiancoding.com/sketch -->
    <title>28D93DDF-0B23-4206-A090-6C0DB2AB80A4</title>
    <desc>Created with sketchtool.</desc>
    <defs></defs>
    <g id="Welcome" stroke="none" stroke-width="1" fill="none" fill-rule="evenodd">
        <g id="Tender" transform="translate(-1137.000000, -390.000000)" fill="#D2D2D2">
            <g id="social" transform="translate(1069.000000, 359.000000)">
                <g id="Facebook" transform="translate(68.000000, 31.000000)">
                    <path d="M0,15 C0,6.71572834 6.71572834,0 15,0 C23.2842717,0 30,6.71572834 30,15 C30,23.2842717 23.2842717,30 15,30 C6.71572834,30 0,23.2842717 0,15 Z M16.0634719,23.3196729 L16.0634719,15.158881 L18.3162074,15.158881 L18.6147435,12.3466269 L16.0634719,12.3466269 L16.0672993,10.9390667 C16.0672993,10.2055875 16.1369896,9.81257258 17.1904776,9.81257258 L18.5987961,9.81257258 L18.5987961,7 L16.3457416,7 C13.6394609,7 12.6869203,8.3642458 12.6869203,10.6584782 L12.6869203,12.3469454 L11,12.3469454 L11,15.1591995 L12.6869203,15.1591995 L12.6869203,23.3196729 L16.0634719,23.3196729 Z" id="Combined-Shape"></path>
                </g>
            </g>
        </g>
    </g>
</svg>