<?xml version="1.0" encoding="utf-8"?>
<svg xmlns="http://www.w3.org/2000/svg"
	xmlns:xlink="http://www.w3.org/1999/xlink"
	width="24px" height="24px" viewBox="0 0 12 12">
<path fillRule="evenodd" d="M 11.91 3.08C 11.17 1.86 10.13 0.83 8.91 0.08 8.68-0.06 8.39-0.02 8.21 0.16 8.21 0.16 1.61 6.75 1.61 6.75 1.55 6.81 1.5 6.89 1.47 6.98 1.02 8.36 0.51 9.84 0.02 11.24-0.05 11.45-0 11.68 0.15 11.83 0.26 11.94 0.41 12 0.56 12 0.62 12 0.68 11.99 0.75 11.96 2.13 11.48 3.6 10.97 5.01 10.5 5.09 10.47 5.17 10.43 5.24 10.36 5.24 10.36 11.83 3.78 11.83 3.78 12.02 3.59 12.05 3.3 11.91 3.08ZM 4.55 9.44C 4.55 9.44 4.52 9.46 4.52 9.46 3.85 9.69 3.16 9.92 2.47 10.16 2.47 10.16 1.82 9.51 1.82 9.51 2.06 8.82 2.3 8.13 2.52 7.46 2.52 7.46 2.53 7.44 2.53 7.44 2.53 7.44 3.41 7.44 3.41 7.44 3.41 7.44 3.41 8.3 3.41 8.3 3.41 8.45 3.53 8.58 3.69 8.58 3.69 8.58 4.55 8.58 4.55 8.58 4.55 8.58 4.55 9.44 4.55 9.44Z" fill="rgb(221,71,153)"/></svg>